<svg width="180" height="180" viewBox="0 0 180 180" fill="none" xmlns="http://www.w3.org/2000/svg">
<rect x="2" y="2" width="176" height="176" rx="2" fill="#0A9418" fill-opacity="0.75" stroke="#06600F" stroke-width="4"/>
<path d="M84.375 84.7422C84.375 87.5026 83.6849 89.9505 82.3047 92.0859C80.9245 94.2214 79.0234 95.9271 76.6016 97.2031C79.362 98.5312 81.5495 100.367 83.1641 102.711C84.7786 105.029 85.5859 107.763 85.5859 110.914C85.5859 115.966 83.8672 119.964 80.4297 122.906C76.9922 125.823 72.3177 127.281 66.4062 127.281C60.4948 127.281 55.8073 125.81 52.3438 122.867C48.8802 119.924 47.1484 115.94 47.1484 110.914C47.1484 107.763 47.9557 105.016 49.5703 102.672C51.1849 100.328 53.3594 98.5052 56.0938 97.2031C53.6719 95.9271 51.7708 94.2214 50.3906 92.0859C49.0365 89.9505 48.3594 87.5026 48.3594 84.7422C48.3594 79.8984 49.974 76.0443 53.2031 73.1797C56.4323 70.2891 60.8203 68.8438 66.3672 68.8438C71.888 68.8438 76.263 70.276 79.4922 73.1406C82.7474 75.9792 84.375 79.8464 84.375 84.7422ZM74.2578 110.094C74.2578 107.62 73.5417 105.641 72.1094 104.156C70.6771 102.672 68.75 101.93 66.3281 101.93C63.9323 101.93 62.0182 102.672 60.5859 104.156C59.1536 105.615 58.4375 107.594 58.4375 110.094C58.4375 112.516 59.1406 114.469 60.5469 115.953C61.9531 117.438 63.9062 118.18 66.4062 118.18C68.8542 118.18 70.7682 117.464 72.1484 116.031C73.5547 114.599 74.2578 112.62 74.2578 110.094ZM73.0859 85.2891C73.0859 83.0755 72.5 81.3047 71.3281 79.9766C70.1562 78.6224 68.5026 77.9453 66.3672 77.9453C64.2578 77.9453 62.6172 78.5964 61.4453 79.8984C60.2734 81.2005 59.6875 82.9974 59.6875 85.2891C59.6875 87.5547 60.2734 89.3776 61.4453 90.7578C62.6172 92.138 64.2708 92.8281 66.4062 92.8281C68.5417 92.8281 70.1823 92.138 71.3281 90.7578C72.5 89.3776 73.0859 87.5547 73.0859 85.2891ZM130.312 84.7422C130.312 87.5026 129.622 89.9505 128.242 92.0859C126.862 94.2214 124.961 95.9271 122.539 97.2031C125.299 98.5312 127.487 100.367 129.102 102.711C130.716 105.029 131.523 107.763 131.523 110.914C131.523 115.966 129.805 119.964 126.367 122.906C122.93 125.823 118.255 127.281 112.344 127.281C106.432 127.281 101.745 125.81 98.2812 122.867C94.8177 119.924 93.0859 115.94 93.0859 110.914C93.0859 107.763 93.8932 105.016 95.5078 102.672C97.1224 100.328 99.2969 98.5052 102.031 97.2031C99.6094 95.9271 97.7083 94.2214 96.3281 92.0859C94.974 89.9505 94.2969 87.5026 94.2969 84.7422C94.2969 79.8984 95.9115 76.0443 99.1406 73.1797C102.37 70.2891 106.758 68.8438 112.305 68.8438C117.826 68.8438 122.201 70.276 125.43 73.1406C128.685 75.9792 130.312 79.8464 130.312 84.7422ZM120.195 110.094C120.195 107.62 119.479 105.641 118.047 104.156C116.615 102.672 114.688 101.93 112.266 101.93C109.87 101.93 107.956 102.672 106.523 104.156C105.091 105.615 104.375 107.594 104.375 110.094C104.375 112.516 105.078 114.469 106.484 115.953C107.891 117.438 109.844 118.18 112.344 118.18C114.792 118.18 116.706 117.464 118.086 116.031C119.492 114.599 120.195 112.62 120.195 110.094ZM119.023 85.2891C119.023 83.0755 118.438 81.3047 117.266 79.9766C116.094 78.6224 114.44 77.9453 112.305 77.9453C110.195 77.9453 108.555 78.5964 107.383 79.8984C106.211 81.2005 105.625 82.9974 105.625 85.2891C105.625 87.5547 106.211 89.3776 107.383 90.7578C108.555 92.138 110.208 92.8281 112.344 92.8281C114.479 92.8281 116.12 92.138 117.266 90.7578C118.438 89.3776 119.023 87.5547 119.023 85.2891Z" fill="white"/>
</svg>
